# xmcd CD database file
#
# Track frame offsets:
#	150
#	22634
#	35210
#	52494
#	59026
#	76394
#	102236
#	124636
#	150478
#	163791
#	187920
#	210224
#
# Disc length: 3169 seconds
#
# Revision: 0
# Processed by: cddbd v1.5.1PL0 Copyright (c) Steve Scherf et al.
# Submitted via: CDex 1.51
#
DISCID=9a0c5f0c
DTITLE=Jeff Victor - Summer Sojourn
DYEAR=1996
DGENRE=New Age
TTITLE0=Sunrise
TTITLE1=Circles On A Pond
TTITLE2=Papillon
TTITLE3=Jus'mozeyin'
TTITLE4=The Tree That Saw The Civil War
TTITLE5=Mississippi Moon Song
TTITLE6=The Laughing Forest
TTITLE7=Heat Lightning
TTITLE8=Night
TTITLE9=Tomorrow Comes Too Fast
TTITLE10=I Flew Through The Arc Of A Rainbow
TTITLE11=Field Of Memories
EXTD=YEAR: 1996
EXTT0=
EXTT1=
EXTT2=
EXTT3=
EXTT4=
EXTT5=
EXTT6=
EXTT7=
EXTT8=
EXTT9=
EXTT10=
EXTT11=
PLAYORDER=
